/* XPM */
static char *ce03c97a39794358988a4096559f30ca24xw5qcqtGfARFTn[] = {
/* columns rows colors chars-per-pixel */
"32 32 38 1 ",
"  c #64AE55",
". c #65AF58",
"X c #69AF59",
"o c #65B456",
"O c #69B556",
"+ c #65BA56",
"@ c #67B559",
"# c #6BB55B",
"$ c #6CBB5C",
"% c #6DB760",
"& c #6EBA61",
"* c #71BD62",
"= c #75BD6A",
"- c #7CBD6B",
"; c #6DC05E",
": c #6FC061",
"> c #72C364",
", c #75C469",
"< c #7BC46D",
"1 c #76CA6B",
"2 c #7CCB6E",
"3 c #7CD26C",
"4 c #7DC571",
"5 c #7ECC71",
"6 c #7ED171",
"7 c #81C46F",
"8 c #80CE6D",
"9 c #81D16F",
"0 c #82C672",
"q c #83CC73",
"w c #8ACD75",
"e c #85CC79",
"r c #8ACD7A",
"t c #83D274",
"y c #89D276",
"u c #86D379",
"i c #89D37A",
"p c #8ADB7B",
/* pixels */
"50552%@50q1eeq55qq1@#%,522e0<054",
"4<5q$&o@2,11e65qqe$$#@ *q2y00e4q",
"455t%#&*82,25565qq@@$@XX32eeeew0",
"<55ut@&tt212655q88q$$$X22eyrqq1e",
"e5u304w0t-$$;5eq>212564ere0tq555",
"4e2e0wqy-=$*++w,1>t3t045te655526",
",40qwp5ep#%&>$52>5tt6666135#$2ty",
"<11qeu25iy##$2556tu9u66562$$$$yq",
"q25<19yq2q2299q5<wqe<74w5y;$+ 22",
"5u542,t7<<<3tt9t,2i470qy5y2;@6qt",
"ei5528q704<<<89y05<4<@>2521622ut",
"iq65w800qt54<<t<454-@#&*6t2t89t2",
"e6226@O0224<52==4e45@o@owy<2840t",
"223to OO2<4052t<004q4o@uw8t<7<-4",
"2987#o@>2,54qtq*@5544ryuqt6t3366",
"992<,@;4-<4qee$$@@44rriy8ytt3332",
"ie8t,,ui1,4155&&@X00t<555e5q3&$3",
"iwt7156e454q15e@ 040-<,,<2qt$#$+",
"riyq04e44e55qy55==00w711,irw&#$$",
"ri8e5ewe5e5ueyuqq,eqwq,2ptwr*$&@",
"yr@iq5eq<4y52quq2quuqy22t9t2$*$;",
"i&*$2qi<<15p92q812iyq4q252t33;:3",
"**$Oyt7w295ttqttt;*t598tt9t0t522",
"y*$$$p7qt2tqtutq>$*&61t<6t00qt53",
"=<t$e0t19+*98i09.#%#eq4#&tw70q55",
"=2qr0e81O$$&pe8ttX#20q&@>@87w,54",
"<2e85711>:*@9t2rt52<w2$#**q7,<<-",
"28t0<qe9>>O@88rri5<4355@*t<1<2<<",
"ut05qr089O*$6r5eer,rt51<tt44,X@,",
"uu44ri00tt*tip55eruuu11555e5oXX#",
"q2uue,25t5u55iq0eeu46t875tr4..#+",
"25uere225e=46uee4ee0w5<qeeq4,@@1"
};
