/* XPM */
static char *_f9720ef49a04ad1e92706dfd1f28e58UATE1BTzFUE47V0d[] = {
/* columns rows colors chars-per-pixel */
"32 32 13 1 ",
"  c #674F2F",
". c #7E613A",
"X c #C7691D",
"o c #967345",
"O c #987D4B",
"+ c #E78A26",
"@ c #F9A935",
"# c #AF8E5A",
"$ c #B89363",
"% c #C29C67",
"& c #FFCC68",
"* c #8B8B8A",
"= c #FFE287",
/* pixels */
"$$%%%%%%%%%%%%%%%%%%%%%%%%%%%%$$",
"$$$$$$$$$$$$$$$$$$$$$$$$$$$$$$$$",
"o$$$##$%%%%##$$%%%$###$$$###$$$o",
"o$%%%$####$$######$$%%###$$###$o",
"o#####$$$$##$$$$%%%%$#%%%%%%$$$o",
"o%%%%%####$%%$#####$####$####%%o",
"o$$$$$%%%%%$###$$$%%%%$$$%%%%$$ ",
"    ..      ....    ....        ",
" oXXX+X@+@@@++@+@@@++X+@@@+XXXo ",
" ooooX++@$$$@++$$@+@+XX+@+@+Xoo ",
" oooooXo#$$$&@$$$###X+$$$@+Xooo ",
" o$%$$+O$$##$&#####$%X%%%OXX#$o ",
".$$#$%%O#$$###$%%$%$#####O+%%$#.",
".%$$###O$##$$$##%%###%%%$O+##$$.",
".$*##%$O#####%%$$$$$%###%O$$$*$.",
".$%%%$$O$$%%%$$##%%%$$$%%O$##$#.",
".$$###$O%%%###%%##$$$##$$O##$$%.",
".$#####o#$$$#$$$$#####$$$O$$##$.",
" OOOOOOOOOOOOOOOOOOOOOOOOOOOOOO ",
" $*#$%%$#$oo++++++&@oo###$$%%*# ",
".%$$####$o+++@+@&@@&@@o%$$###$$ ",
".$###%$$#o++@+@&@@=&&@o#%%%$$#$ ",
".$%%%$%%%%oo+@+@@&&=oo$%%$$##$#.",
".oooOOOOOOOOOOOO@&==OOOOOOOOooo.",
".$$$%%%%%%%%%%%O%@=+%%%%%%%%$$$.",
".$#####$%%$$$$$O$@@+######$$##%.",
" $$%%$$###$%%##O##+%%%%%%$##$%$ ",
" $*$$##$$%%##$$O$%+$#####%%$#*$ ",
".$####$$##$$%%%o$$###$$$$##$$$#.",
".##$$$%%$$%%$$$o%%%$$###%%%####.",
" $$####$%%$$###o$$###$$####%%%$ ",
"    ..  ....        ....  ..    "
};
