/* XPM */
static char *_9a3ccfda49a46c487debcd40ea9c6d2g1fSls0EnRnZVfn8[] = {
/* columns rows colors chars-per-pixel */
"30 30 8 1 ",
"  c None",
". c black",
"X c #000100",
"o c #DB2800",
"O c #DB2900",
"+ c #FF9A38",
"@ c #FF9B38",
"# c white",
/* pixels */
"                              ",
"                              ",
"                              ",
"                              ",
"                              ",
"                              ",
"              ... ..          ",
"            ..###.##.         ",
"           .O##..#.#.         ",
"          .oo##..#.#.         ",
"          .Ooo###o#o.         ",
"          .OoooO@@oo.         ",
"         ..Ooooo@@OO.         ",
"       ..oO.oO....o...        ",
"      .oOoOo.OOoOo.OOO.       ",
"      .ooooOO.....OOOO.       ",
"     .OOOO.OOooooO.OOoo.      ",
"     .oO...OoooooO...OO.      ",
"     .ooo..ooOoooo..ooO.      ",
"     .oOO..ooooooo..OoO.      ",
"      ... .ooooOoo. ...       ",
"         .OoOooOooO.          ",
"        .Ooooo.OoOOo.         ",
"       ..OooO. .ooOO..        ",
"     ..OoooO.   .oooOO..      ",
"    .OOOOooo.   .OooOOOo.     ",
"    .........   .........     ",
"                              ",
"                              ",
"                              "
};
