/* XPM */
static char *d12876384b48498fc444c9be6b786731fpTIQQaFfOePQaw1[] = {
/* columns rows colors chars-per-pixel */
"32 32 6 1 ",
"  c #504B41",
". c #544F46",
"X c #5B554E",
"o c #69625A",
"O c #7B7369",
"+ c #8D8478",
/* pixels */
"Ooo.oXooX.oXO+oooOX ooOoX.+oOo o",
"+oX oOoXo.Xo+OXoOo. oXoO.XOOoo.X",
"Oo .O+o.oX.o+o.XOo .OXOO XoOoOXX",
"oO.X+OX.Xo o+XX.oo X+XoO.ooOXOX.",
"ooXoo+. XO oOXO.oO XO+Xo.oXoXOo.",
"Oo.OXOX oO XOoo.OO.XoO.o OXoo+oX",
"+O o.Oo.oO.XooO.OoX.oO X OoXoOo.",
"o+.XXOoXoo..oXOXOXoXOo ..ooXo+X.",
"o+X.XoOXOo. oXoX+XO.oo. XoXXO+.o",
"O+o.oXOXOoX XooX+XoOoXX.o.Xoo+Xo",
"+OoXOXoXoOX.oOXoOoooOXo.o..oXOoX",
"OoOoO.o.o+o oo.oOoX.OooXOX.oXoo.",
"oXOOoXX.O+o.XoXX+O. OoOXOoXo.oOX",
"XooOX.oX+OoXoXoXO+ X+oOoOo.X.+Oo",
"XoXo.XOo+oXoo.OXo+ oO+oXOO .XOoX",
"oX.X.XO+XoXOX.+oXO.oXOo.oO. oOXO",
"Xo.. Xo+XoOO .+X.O.Xo+X.OOX X+.O",
"Oo.X XOooX+o.oOo.oX.o+.XOoX.XO.o",
"OXXo XoXo.Oo.XoO.Oo.o+.oOXo. oXo",
"+XoO. OoXXoXX.XoX+O.oO OoXoX .oO",
"OooOX +oXoOXo .oXo+XoO OoOoo .o+",
"ooXoo.+XoXo.o  XOoOXOo.XO+oO..O+",
"Xo.XoXOXOoX.oX .+oXXOoX.o+XO.XOo",
"Oo..ooOo+o.X.o. +OXoXoX oOX+XoOo",
"+oX OXoo+o.oXOX.O+.oXOX XoXO.XoX",
"OoO.oXoX+O.ooXo o+.Oo+. XoXoXoO.",
"+oO.X.oX+oXXoXo.XO.o+O .XooOXoo ",
"+OoX.XooOoo.OXoXoO.X+o. oOo+oOo ",
"O+oo.XoOooO.oOX.Oo..O.X Xo+OXOo.",
"o+Xo.oOoXOOXoO oOoX.X.oX.oOoXO.X",
"oOXoXo+X.OoXoO XooX.oXoo.X+.XoXo",
"oOXXoXOoXoOXOO.oXOo.oXOo..+Xoo.X"
};
